<?xml version="1.0" encoding="UTF-8"?>
<!--
Additional SVG icons
-->
<svg xmlns="http://www.w3.org/2000/svg" style="display: none;">
  <!-- "compress" icon from https://github.com/encharm/Font-Awesome-SVG-PNG -->
<symbol id="nq-icon-close" viewBox="0 0 32 32">
<path d="M19.067 16.24c-0.133-0.133-0.133-0.347 0-0.467 0 0 0 0 0 0l12.347-12.347c0.787-0.787 0.787-2.053 0-2.827s-2.053-0.787-2.827 0l-12.347 12.333c-0.133 0.133-0.347 0.133-0.467 0 0 0 0 0 0 0l-12.36-12.347c-0.787-0.787-2.053-0.787-2.827 0s-0.787 2.053 0 2.827l12.347 12.347c0.133 0.133 0.133 0.347 0 0.467 0 0 0 0 0 0l-12.347 12.347c-0.787 0.787-0.787 2.053 0 2.827s2.053 0.787 2.827 0v0l12.347-12.347c0.133-0.133 0.347-0.133 0.467 0 0 0 0 0 0 0l12.347 12.347c0.787 0.787 2.053 0.787 2.827 0s0.787-2.053 0-2.827l-12.333-12.333z"></path>
</symbol>
<symbol id="nq-icon-up" viewBox="0 0 32 32">
<path d="M4.853 22.16c0.653 0.653 1.707 0.653 2.36 0l8.587-8.56c0.133-0.133 0.347-0.133 0.467 0l8.587 8.56c0.653 0.653 1.707 0.653 2.36 0s0.653-1.707 0-2.36l-10-9.973c-0.653-0.653-1.707-0.653-2.36 0l-10 9.973c-0.653 0.64-0.693 1.667-0.053 2.333 0 0.013 0.013 0.040 0.053 0.027z"></path>
</symbol>
<symbol id="nq-icon-down" viewBox="0 0 32 32">
<path d="M27.173 9.84c-0.653-0.653-1.707-0.653-2.36 0l-8.587 8.56c-0.133 0.133-0.347 0.133-0.467 0l-8.587-8.56c-0.653-0.653-1.707-0.653-2.36 0s-0.653 1.707 0 2.36l10 9.973c0.653 0.653 1.707 0.653 2.36 0l10-9.973c0.653-0.64 0.693-1.667 0.053-2.333 0-0.013-0.013-0.040-0.053-0.027z"></path>
</symbol>
<symbol id="nq-icon-menu" viewBox="0 0 32 32">
<path d="M2 3.333h28c0.733 0 1.333 0.6 1.333 1.333v1.333c0 0.733-0.6 1.333-1.333 1.333h-28c-0.733 0-1.333-0.6-1.333-1.333v-1.333c0-0.733 0.6-1.333 1.333-1.333z"></path>
<path d="M2 14h28c0.733 0 1.333 0.6 1.333 1.333v1.333c0 0.733-0.6 1.333-1.333 1.333h-28c-0.733 0-1.333-0.6-1.333-1.333v-1.333c0-0.733 0.6-1.333 1.333-1.333z"></path>
<path d="M2 24.667h28c0.733 0 1.333 0.6 1.333 1.333v1.333c0 0.733-0.6 1.333-1.333 1.333h-28c-0.733 0-1.333-0.6-1.333-1.333v-1.333c0-0.733 0.6-1.333 1.333-1.333z"></path>
</symbol>
<symbol id="nq-icon-search" viewBox="0 0 32 32">
<path d="M31.173 28.827l-8.707-8.707c4.133-5.44 3.080-13.213-2.36-17.347s-13.2-3.080-17.333 2.36-3.080 13.213 2.36 17.347c4.427 3.373 10.56 3.373 14.987 0l8.707 8.707c0.653 0.64 1.707 0.64 2.36 0 0.613-0.653 0.587-1.693-0.013-2.36zM3.667 12.667c0-4.973 4.027-9 9-9s9 4.027 9 9-4.027 9-9 9c-4.973 0-9-4.027-9-9z"></path>
</symbol>
<symbol id="nq-icon-unordered-list" viewBox="0 0 32 32">
<path d="M11.333 6.667h19.333c0.733 0 1.333-0.6 1.333-1.333s-0.6-1.333-1.333-1.333h-19.333c-0.733 0-1.333 0.6-1.333 1.333s0.6 1.333 1.333 1.333z"></path>
<path d="M30.667 14.667h-19.333c-0.733 0-1.333 0.6-1.333 1.333s0.6 1.333 1.333 1.333h19.333c0.733 0 1.333-0.6 1.333-1.333s-0.6-1.333-1.333-1.333z"></path>
<path d="M30.667 25.333h-19.333c-0.733 0-1.333 0.6-1.333 1.333s0.6 1.333 1.333 1.333h19.333c0.733 0 1.333-0.6 1.333-1.333s-0.6-1.333-1.333-1.333z"></path>
<path d="M2 3.333h2.667c0.373 0 0.667 0.293 0.667 0.667v2.667c0 0.373-0.293 0.667-0.667 0.667h-2.667c-0.373 0-0.667-0.307-0.667-0.667v-2.667c0-0.373 0.293-0.667 0.667-0.667z"></path>
<path d="M4.667 2h-2.667c-1.107 0-2 0.893-2 2v2.667c0 1.107 0.893 2 2 2h2.667c1.107 0 2-0.893 2-2v-2.667c0-1.107-0.893-2-2-2zM5.333 6.667c0 0.373-0.293 0.667-0.667 0.667h-2.667c-0.373 0-0.667-0.293-0.667-0.667v-2.667c0-0.373 0.293-0.667 0.667-0.667h2.667c0.373 0 0.667 0.293 0.667 0.667v2.667z"></path>
<path d="M2 14h2.667c0.373 0 0.667 0.293 0.667 0.667v2.667c0 0.373-0.293 0.667-0.667 0.667h-2.667c-0.373 0-0.667-0.307-0.667-0.667v-2.667c0-0.373 0.293-0.667 0.667-0.667z"></path>
<path d="M4.667 12.667h-2.667c-1.107 0-2 0.893-2 2v2.667c0 1.107 0.893 2 2 2h2.667c1.107 0 2-0.893 2-2v-2.667c0-1.107-0.893-2-2-2zM5.333 17.333c0 0.373-0.293 0.667-0.667 0.667h-2.667c-0.373 0-0.667-0.293-0.667-0.667v-2.667c0-0.373 0.293-0.667 0.667-0.667h2.667c0.373 0 0.667 0.293 0.667 0.667v2.667z"></path>
<path d="M2 24.667h2.667c0.373 0 0.667 0.293 0.667 0.667v2.667c0 0.373-0.293 0.667-0.667 0.667h-2.667c-0.373 0-0.667-0.307-0.667-0.667v-2.667c0-0.373 0.293-0.667 0.667-0.667z"></path>
<path d="M4.667 23.333h-2.667c-1.107 0-2 0.893-2 2v2.667c0 1.107 0.893 2 2 2h2.667c1.107 0 2-0.893 2-2v-2.667c0-1.107-0.893-2-2-2zM5.333 28c0 0.373-0.293 0.667-0.667 0.667h-2.667c-0.373 0-0.667-0.293-0.667-0.667v-2.667c0-0.373 0.293-0.667 0.667-0.667h2.667c0.373 0 0.667 0.293 0.667 0.667v2.667z"></path>
</symbol>
<symbol id="nq-icon-options-vertical" viewBox="0 0 32 32">
<path d="M20.333 4.333c0 2.393-1.94 4.333-4.333 4.333s-4.333-1.94-4.333-4.333c0-2.393 1.94-4.333 4.333-4.333s4.333 1.94 4.333 4.333z"></path>
<path d="M20.333 16c0 2.393-1.94 4.333-4.333 4.333s-4.333-1.94-4.333-4.333c0-2.393 1.94-4.333 4.333-4.333s4.333 1.94 4.333 4.333z"></path>
<path d="M20.333 27.667c0 2.393-1.94 4.333-4.333 4.333s-4.333-1.94-4.333-4.333c0-2.393 1.94-4.333 4.333-4.333s4.333 1.94 4.333 4.333z"></path>
</symbol>
<symbol id="nq-icon-wrench" viewBox="0 0 32 32">
<path d="M31.44 6.653c-0.107-0.347-0.493-0.547-0.84-0.427-0.107 0.027-0.2 0.093-0.267 0.16l-4.747 4.733c-0.147 0.147-0.333 0.213-0.533 0.187l-3.453-0.307c-0.32-0.027-0.573-0.28-0.6-0.6l-0.307-3.467c-0.013-0.2 0.053-0.387 0.2-0.533l4.747-4.747c0.267-0.267 0.267-0.68 0-0.947-0.080-0.080-0.173-0.133-0.267-0.16-3.387-1-7.040-0.053-9.52 2.467-2.64 2.613-3.467 6.547-2.12 10 0.107 0.24 0.053 0.52-0.133 0.707l-12.373 12.36c-1.027 0.987-1.333 2.48-0.8 3.8 0.76 1.693 2.747 2.44 4.44 1.68 0.36-0.16 0.693-0.387 0.973-0.667l12.453-12.453c0.187-0.187 0.467-0.24 0.707-0.133 3.453 1.36 7.387 0.547 10-2.093 2.493-2.48 3.453-6.16 2.44-9.56z"></path>
</symbol>
<symbol id="nq-icon-share" viewBox="0 0 32 32">
<path d="M25.333 18.667c-1.8 0-3.533 0.733-4.787 2.040l-7.32-3.667c0.067-0.347 0.093-0.693 0.107-1.040-0.013-0.347-0.040-0.693-0.107-1.040l7.32-3.667c2.56 2.64 6.773 2.693 9.413 0.133s2.693-6.773 0.133-9.413-6.773-2.693-9.413-0.133c-1.293 1.253-2.013 2.987-2.013 4.787 0.013 0.347 0.040 0.707 0.107 1.040l-7.32 3.667c-2.56-2.653-6.787-2.733-9.427-0.173s-2.733 6.773-0.173 9.427 6.773 2.733 9.427 0.173c0.053-0.053 0.12-0.12 0.173-0.173l7.32 3.667c-0.067 0.333-0.093 0.693-0.107 1.040 0 3.68 2.987 6.667 6.667 6.667s6.667-2.987 6.667-6.667-2.987-6.667-6.667-6.667z"></path>
</symbol>
<symbol id="nq-icon-flag" viewBox="0 0 32 32">
<path d="M28 2.667h-19.333c-0.547 0-1 0.453-1 1v16c0 0.547 0.453 1 1 1h19.333c1.293 0 2.333-1.040 2.333-2.333v-13.333c0-1.293-1.040-2.333-2.333-2.333z"></path>
<path d="M3.667 0c-1.107 0-2 0.893-2 2v28c0 1.107 0.893 2 2 2s2-0.893 2-2v-28c0-1.107-0.893-2-2-2z"></path>
</symbol>
<symbol id="nq-icon-invite" viewBox="0 0 32 32">
<path d="M18.333 10.333c0 1.293-0.307 2.56-0.88 3.72-0.133 0.253-0.080 0.573 0.133 0.773 1.173 1.173 2.76 1.84 4.413 1.84 3.493 0 6.333-2.84 6.333-6.333s-2.84-6.333-6.333-6.333c-1.667 0-3.253 0.667-4.427 1.84-0.213 0.2-0.267 0.507-0.133 0.773 0.587 1.16 0.893 2.427 0.893 3.72z"></path>
<path d="M22 17.333c-1.080 0-2.147 0.173-3.173 0.52-0.347 0.12-0.533 0.493-0.427 0.84 0.027 0.093 0.080 0.187 0.16 0.253 2.2 2.24 3.44 5.24 3.44 8.373 0 0.373 0.293 0.667 0.667 0.667h8.667c0.373 0 0.667-0.293 0.667-0.667 0-5.507-4.48-9.987-10-9.987z"></path>
<path d="M16.333 10.333c0 3.498-2.836 6.333-6.333 6.333s-6.333-2.836-6.333-6.333c0-3.498 2.836-6.333 6.333-6.333s6.333 2.836 6.333 6.333z"></path>
<path d="M20 27.333c0-5.52-4.48-10-10-10s-10 4.48-10 10c0 0.373 0.293 0.667 0.667 0.667h18.667c0.373 0 0.667-0.293 0.667-0.667z"></path>
</symbol>
<symbol id="nq-icon-forward" viewBox="0 0 32 32">
<path d="M1.333 25.92c0 0.24 0.133 0.467 0.347 0.587 0.32 0.173 0.733 0.053 0.907-0.267 4.307-8.067 12.6-7.053 15.147-6.52 0.16 0.027 0.267 0.173 0.267 0.32v4.040c0 0.307 0.107 0.613 0.307 0.853 0.467 0.573 1.307 0.653 1.88 0.187l10.013-8.853c0.293-0.253 0.467-0.627 0.467-1.013 0-0.4-0.173-0.773-0.48-1.027l-10-8.493c-0.24-0.2-0.547-0.307-0.853-0.307-0.733 0-1.333 0.6-1.333 1.333v3.427c0 0 0 0.013 0 0.013-0.013 0.187-0.16 0.32-0.347 0.32-2.307-0.080-7.8 0.16-11.813 3.72-2.987 2.653-4.507 6.587-4.507 11.68z"></path>
</symbol>
<symbol id="nq-icon-reply" viewBox="0 0 32 32">
<path d="M26.16 14.24c-4.013-3.56-9.493-3.8-11.813-3.72-0.187 0.013-0.333-0.133-0.347-0.32 0 0 0-0.013 0-0.013v-3.44c0-0.733-0.6-1.333-1.333-1.333-0.307 0-0.613 0.107-0.853 0.307l-9.987 8.493c-0.32 0.267-0.493 0.64-0.493 1.040 0 0.387 0.173 0.76 0.467 1.013l10.013 8.853c0.573 0.467 1.413 0.387 1.88-0.187 0.2-0.24 0.307-0.533 0.307-0.853v-4.040c0-0.16 0.107-0.293 0.267-0.32 2.547-0.533 10.84-1.547 15.147 6.52 0.173 0.32 0.573 0.44 0.907 0.267 0.213-0.12 0.347-0.347 0.347-0.587 0-5.093-1.52-9.027-4.507-11.68z"></path>
</symbol>
<symbol id="nq-icon-options-horizontal" viewBox="0 0 32 32">
<path d="M8.667 16c0 2.393-1.94 4.333-4.333 4.333s-4.333-1.94-4.333-4.333c0-2.393 1.94-4.333 4.333-4.333s4.333 1.94 4.333 4.333z"></path>
<path d="M20.333 16c0 2.393-1.94 4.333-4.333 4.333s-4.333-1.94-4.333-4.333c0-2.393 1.94-4.333 4.333-4.333s4.333 1.94 4.333 4.333z"></path>
<path d="M32 16c0 2.393-1.94 4.333-4.333 4.333s-4.333-1.94-4.333-4.333c0-2.393 1.94-4.333 4.333-4.333s4.333 1.94 4.333 4.333z"></path>
</symbol>
<symbol id="nq-icon-edit" viewBox="0 0 32 32">
<path d="M20.093 5.32c-0.12-0.12-0.293-0.2-0.467-0.2v0c-0.173 0-0.347 0.067-0.467 0.2l-14.573 14.56c-0.267 0.267-0.267 0.68 0 0.947l6.6 6.6c0.267 0.267 0.68 0.267 0.947 0l14.547-14.56c0.253-0.267 0.253-0.68 0-0.947l-6.587-6.6z"></path>
<path d="M3.24 22.4c-0.173-0.173-0.427-0.24-0.653-0.173s-0.413 0.253-0.467 0.48l-2.013 8.373c-0.053 0.227 0.013 0.467 0.173 0.627s0.4 0.227 0.627 0.173l8.36-2c0.36-0.080 0.573-0.44 0.493-0.8-0.027-0.12-0.093-0.227-0.173-0.32l-6.347-6.36z"></path>
<path d="M30.933 3.893l-2.827-2.827c-1.307-1.293-3.413-1.293-4.707 0l-1.893 1.893c-0.267 0.267-0.267 0.68 0 0.947l6.6 6.6c0.267 0.267 0.68 0.267 0.947 0l1.893-1.893c1.28-1.307 1.28-3.413-0.013-4.72z"></path>
</symbol>
<symbol id="nq-icon-trash" viewBox="0 0 32 32">
<path d="M26 10h-20c-0.373 0-0.667 0.293-0.667 0.667v18.667c0 1.467 1.2 2.667 2.667 2.667h16c1.467 0 2.667-1.2 2.667-2.667v-18.667c0-0.373-0.293-0.667-0.667-0.667zM13.667 27.333c0 0.547-0.453 1-1 1s-1-0.453-1-1v-12c0-0.547 0.453-1 1-1s1 0.453 1 1v12zM20.333 27.333c0 0.547-0.453 1-1 1s-1-0.453-1-1v-12c0-0.547 0.453-1 1-1s1 0.453 1 1v12z"></path>
<path d="M29.333 5.333h-6.333c-0.187 0-0.333-0.147-0.333-0.333v-1.667c0-1.84-1.493-3.333-3.333-3.333h-6.667c-1.84 0-3.333 1.493-3.333 3.333v1.667c0 0.187-0.147 0.333-0.333 0.333h-6.333c-0.733 0-1.333 0.6-1.333 1.333s0.6 1.333 1.333 1.333h26.667c0.733 0 1.333-0.6 1.333-1.333s-0.6-1.333-1.333-1.333zM12 5v-1.667c0-0.373 0.293-0.667 0.667-0.667h6.667c0.373 0 0.667 0.293 0.667 0.667v1.667c0 0.187-0.147 0.333-0.333 0.333h-7.333c-0.187 0-0.333-0.147-0.333-0.333z"></path>
</symbol>
<symbol id="nq-icon-quote-message" viewBox="0 0 32 32">
<path d="M16 3.467c-7.733 0-14 5.067-14 11.333 0 3.2 1.6 6.133 4.133 8 0.4 1.6-0.533 3.2-2.133 3.6 0 0 0 0 0 0-0.133 0-0.267 0.133-0.4 0.267-0.267 0.267-0.267 0.667-0.133 1.067 0.267 0.533 0.667 0.8 1.2 0.8 0.4 0.133 0.933 0.133 1.467 0.133 2.533-0.133 4.8-1.067 6.667-2.8 1.067 0.267 2.267 0.4 3.467 0.4 7.733 0 14-5.067 14-11.333s-6.533-11.467-14.267-11.467z"></path>
</symbol>
<symbol id="nq-icon-bold" viewBox="0 0 32 32">
<path d="M22.92 14.613c3.267-3.253 3.28-8.547 0.027-11.827-1.547-1.547-3.64-2.44-5.827-2.467h-11.387c-0.92 0-1.667 0.747-1.667 1.667s0.747 1.667 1.667 1.667h1.347c0.187 0 0.333 0.147 0.333 0.333v24c0 0.187-0.147 0.333-0.333 0.333h-1.347c-0.92 0-1.667 0.747-1.667 1.667s0.747 1.667 1.667 1.667h13.28c4.96-0.040 8.96-4.107 8.907-9.067-0.013-3.373-1.96-6.467-5-7.973v0zM17.12 3.667c2.773 0.040 4.973 2.333 4.933 5.093-0.040 2.707-2.227 4.893-4.933 4.933h-6.040c-0.187 0-0.333-0.147-0.333-0.333v-9.36c0-0.187 0.147-0.333 0.333-0.333h6.040zM19.013 28.333h-7.933c-0.187 0-0.333-0.147-0.333-0.333v-10.64c0-0.187 0.147-0.333 0.333-0.333h6.040c0.027 0 0.040 0 0.067 0h1.827c3.12 0.053 5.613 2.613 5.56 5.733-0.040 3.053-2.507 5.52-5.56 5.573z"></path>
</symbol>
<symbol id="nq-icon-italic" viewBox="0 0 32 32">
<path d="M30 0.333h-10.187c-0.92 0-1.667 0.747-1.667 1.667s0.747 1.667 1.667 1.667h1.453c0.187 0 0.333 0.147 0.333 0.333 0 0.067-0.013 0.12-0.053 0.173l-15.173 23.853c-0.12 0.187-0.333 0.307-0.56 0.307h-3.813c-0.92 0-1.667 0.747-1.667 1.667s0.747 1.667 1.667 1.667h10.187c0.92 0 1.667-0.747 1.667-1.667s-0.747-1.667-1.667-1.667h-1.453c-0.187 0-0.333-0.147-0.333-0.333 0-0.067 0.013-0.12 0.053-0.173l15.173-23.853c0.12-0.187 0.333-0.307 0.56-0.307h3.813c0.92 0 1.667-0.747 1.667-1.667s-0.747-1.667-1.667-1.667z"></path>
</symbol>
<symbol id="nq-icon-link" viewBox="0 0 32 32">
<path d="M13.947 24.493l-3.653 3.653c-1.467 1.4-3.787 1.4-5.253 0l-1.187-1.187c-1.453-1.453-1.453-3.8 0-5.253l7.733-7.733c1.453-1.453 3.8-1.453 5.253 0l1.187 1.187c0.52 0.52 1.373 0.52 1.893 0s0.52-1.373 0-1.893l-1.187-1.187c-2.493-2.493-6.533-2.493-9.027 0l-7.733 7.733c-2.493 2.493-2.493 6.533 0 9.027 0 0 0 0 0 0l1.187 1.187c2.493 2.493 6.533 2.493 9.027 0 0 0 0 0 0 0l3.653-3.653c0.52-0.52 0.52-1.36 0-1.88s-1.373-0.52-1.893 0v0z"></path>
<path d="M30.040 3.147l-1.187-1.187c-2.493-2.48-6.533-2.48-9.027 0l-3.867 3.867c-0.507 0.533-0.493 1.373 0.027 1.88 0.52 0.493 1.333 0.493 1.853 0l3.867-3.867c1.453-1.453 3.8-1.453 5.253 0l1.187 1.187c1.453 1.453 1.453 3.8 0 5.253 0 0 0 0 0 0l-7.733 7.733c-0.693 0.693-1.64 1.093-2.627 1.093v0c-0.987 0-1.933-0.387-2.627-1.093-0.507-0.533-1.347-0.56-1.88-0.067-0.533 0.507-0.56 1.347-0.067 1.88 0.013 0.027 0.040 0.040 0.053 0.053 1.2 1.2 2.813 1.867 4.507 1.867v0c1.693 0 3.32-0.667 4.52-1.867l7.733-7.733c2.493-2.467 2.493-6.507 0.013-9-0.013 0-0.013 0 0 0v0z"></path>
</symbol>
<symbol id="nq-icon-code" viewBox="0 0 32 32">
<path d="M31.48 17.187c0.653-0.653 0.653-1.707 0-2.36 0 0 0 0 0 0l-5.333-5.333c-0.64-0.667-1.693-0.68-2.36-0.040s-0.68 1.693-0.040 2.36c0.013 0.013 0.027 0.027 0.040 0.040l3.68 3.68c0.267 0.267 0.267 0.68 0 0.947l-3.68 3.68c-0.64 0.667-0.627 1.72 0.040 2.36 0.64 0.627 1.667 0.627 2.32 0l5.333-5.333z"></path>
<path d="M8.173 9.493c-0.653-0.653-1.707-0.653-2.36 0 0 0 0 0 0 0l-5.333 5.333c-0.653 0.653-0.653 1.707 0 2.36 0 0 0 0 0 0l5.333 5.333c0.64 0.667 1.693 0.68 2.36 0.040s0.68-1.693 0.040-2.36c-0.013-0.013-0.027-0.027-0.040-0.040l-3.68-3.68c-0.267-0.267-0.267-0.68 0-0.947l3.68-3.68c0.653-0.653 0.653-1.707 0-2.36 0 0 0 0 0 0z"></path>
<path d="M14.307 23.627c0.12 0.027 0.24 0.040 0.36 0.040 0.787 0 1.453-0.547 1.627-1.307l2.667-12c0.2-0.907-0.373-1.787-1.267-1.987-0.907-0.2-1.787 0.373-1.987 1.267l-2.667 12c-0.2 0.907 0.373 1.787 1.267 1.987 0 0 0 0 0 0z"></path>
</symbol>
<symbol id="nq-icon-image" viewBox="0 0 32 32">
<path d="M13.28 9.744c0 1.944-1.576 3.52-3.52 3.52s-3.52-1.576-3.52-3.52c0-1.944 1.576-3.52 3.52-3.52s3.52 1.576 3.52 3.52z"></path>
<path d="M20.944 13.6c-0.272-0.528-0.832-0.864-1.424-0.864-0.608 0.016-1.136 0.368-1.392 0.912l-2.448 5.36c-0.080 0.192-0.304 0.288-0.512 0.192-0.064-0.032-0.112-0.064-0.144-0.112l-1.28-1.6c-0.304-0.384-0.784-0.608-1.264-0.592-0.496 0.016-0.944 0.256-1.232 0.672l-4.864 6.944c-0.256 0.352-0.176 0.832 0.176 1.088 0.128 0.096 0.288 0.144 0.464 0.144h18.736c0.272 0 0.528-0.144 0.656-0.368 0.144-0.224 0.16-0.512 0.032-0.752l-5.504-11.024z"></path>
<path d="M28.88 0h-25.76c-1.728 0-3.12 1.392-3.12 3.12v25.76c0 1.728 1.392 3.12 3.12 3.12h25.76c1.728 0 3.12-1.392 3.12-3.12v-25.76c0-1.728-1.392-3.12-3.12-3.12zM28.656 28.656c-0.144 0.144-0.352 0.224-0.56 0.224h-24.192c-0.432 0-0.784-0.352-0.784-0.784v-24.192c0-0.432 0.352-0.784 0.784-0.784h24.192c0.432 0 0.784 0.352 0.784 0.784v24.192c0 0.208-0.080 0.4-0.224 0.56v0z"></path>
</symbol>
<symbol id="nq-icon-ordered-list" viewBox="0 0 32 32">
<path d="M10.333 6h20c0.733 0 1.333-0.6 1.333-1.333s-0.6-1.333-1.333-1.333h-20c-0.733 0-1.333 0.6-1.333 1.333s0.6 1.333 1.333 1.333z"></path>
<path d="M30.333 14.667h-20c-0.733 0-1.333 0.6-1.333 1.333s0.6 1.333 1.333 1.333h20c0.733 0 1.333-0.6 1.333-1.333s-0.6-1.333-1.333-1.333z"></path>
<path d="M30.333 26h-20c-0.733 0-1.333 0.6-1.333 1.333s0.6 1.333 1.333 1.333h20c0.733 0 1.333-0.6 1.333-1.333s-0.6-1.333-1.333-1.333z"></path>
<path d="M2.947 23c-1.213 0-2.267 0.813-2.573 1.973-0.147 0.533 0.173 1.080 0.707 1.227s1.080-0.173 1.227-0.707c0.093-0.36 0.467-0.56 0.813-0.467s0.56 0.467 0.467 0.813c-0.080 0.293-0.347 0.493-0.64 0.493-0.547 0-1 0.453-1 1s0.453 1 1 1c0.373 0 0.667 0.293 0.667 0.667s-0.293 0.667-0.667 0.667c-0.293 0-0.56-0.2-0.64-0.48-0.133-0.533-0.667-0.867-1.213-0.733s-0.867 0.667-0.733 1.213c0 0.013 0.013 0.040 0.013 0.053 0.4 1.413 1.867 2.253 3.28 1.853s2.253-1.867 1.853-3.28c-0.080-0.28-0.2-0.533-0.347-0.773-0.080-0.107-0.080-0.253 0-0.373 0.813-1.227 0.493-2.88-0.733-3.693-0.44-0.307-0.947-0.453-1.48-0.453v0z"></path>
<path d="M5.667 14.333c0-1.467-1.2-2.667-2.667-2.667s-2.667 1.2-2.667 2.667c0 0.547 0.453 1 1 1s1-0.453 1-1c0-0.373 0.293-0.667 0.667-0.667s0.667 0.293 0.667 0.667c0 0.307-0.107 0.613-0.307 0.853l-2.813 3.52c-0.347 0.427-0.28 1.067 0.16 1.4 0.173 0.147 0.4 0.213 0.627 0.213h3.333c0.547 0 1-0.453 1-1s-0.453-1-1-1h-0.56c-0.187 0-0.333-0.147-0.333-0.333 0-0.080 0.027-0.147 0.080-0.213l1.080-1.347c0.48-0.587 0.733-1.333 0.733-2.093z"></path>
<path d="M5.333 7h-0.333c-0.187 0-0.333-0.147-0.333-0.333v-4.507c0-1.013-0.827-1.827-1.84-1.84h-0.827c-0.547 0.013-1 0.453-1 1.013s0.453 1 1 1h0.333c0.187 0 0.333 0.147 0.333 0.333 0 0 0 0 0 0v4c0 0.187-0.147 0.333-0.333 0.333h-0.333c-0.547 0-1 0.453-1 1s0.453 1 1 1h3.333c0.547 0 1-0.453 1-1s-0.453-1-1-1v0z"></path>
</symbol>
<symbol id="nq-icon-smiley" viewBox="0 0 32 32">
<path d="M16 0c-8.84 0-16 7.16-16 16s7.16 16 16 16 16-7.16 16-16c-0.013-8.827-7.173-15.987-16-16zM10.667 9.333c1.467 0 2.667 1.2 2.667 2.667s-1.2 2.667-2.667 2.667-2.667-1.2-2.667-2.667 1.2-2.667 2.667-2.667zM9.12 18.88c0.613-0.4 1.44-0.227 1.84 0.387 0 0 0 0 0 0 1.813 2.773 5.52 3.56 8.307 1.76 0.707-0.453 1.307-1.053 1.76-1.76 0.4-0.613 1.227-0.787 1.853-0.387s0.787 1.227 0.387 1.853c-2.613 4.013-7.973 5.147-11.987 2.547-1.013-0.667-1.88-1.533-2.547-2.547-0.4-0.627-0.227-1.453 0.387-1.853 0 0 0 0 0 0zM21.333 14.667c-1.467 0-2.667-1.2-2.667-2.667s1.2-2.667 2.667-2.667 2.667 1.2 2.667 2.667-1.2 2.667-2.667 2.667z"></path>
</symbol>
<symbol id="nq-icon-settings" viewBox="0 0 32 32">
<path d="M29.893 13.013l-1.693-0.6c-0.96-0.333-1.453-1.387-1.107-2.333 0.027-0.053 0.040-0.12 0.067-0.173v0l0.773-1.613c0.747-1.587 0.080-3.467-1.507-4.213-0.853-0.413-1.853-0.413-2.72 0l-1.613 0.773c-0.92 0.44-2.013 0.040-2.44-0.867-0.027-0.053-0.053-0.12-0.067-0.173l-0.6-1.68c-0.587-1.653-2.4-2.507-4.053-1.92-0.893 0.293-1.6 1-1.92 1.893l-0.6 1.693c-0.333 0.947-1.387 1.44-2.333 1.107-0.067-0.027-0.12-0.040-0.173-0.067l-1.627-0.773c-1.587-0.747-3.467-0.080-4.227 1.507-0.413 0.853-0.413 1.853 0 2.72l0.773 1.613c0.44 0.92 0.040 2.013-0.867 2.44-0.053 0.027-0.107 0.053-0.16 0.067l-1.693 0.6c-1.653 0.587-2.507 2.4-1.92 4.040 0.32 0.893 1.027 1.6 1.92 1.92l1.693 0.6c0.947 0.333 1.453 1.387 1.107 2.347-0.027 0.053-0.040 0.12-0.067 0.173l-0.773 1.613c-0.747 1.587-0.080 3.467 1.507 4.227 0.853 0.413 1.853 0.413 2.72 0l1.613-0.773c0.907-0.44 2-0.053 2.44 0.867 0.027 0.053 0.053 0.12 0.067 0.173l0.6 1.68c0.587 1.653 2.4 2.507 4.053 1.92 0.893-0.32 1.6-1.027 1.92-1.92l0.6-1.693c0.333-0.947 1.387-1.453 2.347-1.107 0.053 0.027 0.12 0.040 0.173 0.067l1.613 0.773c1.587 0.747 3.467 0.080 4.227-1.507 0.413-0.853 0.413-1.853 0-2.72l-0.773-1.613c-0.44-0.92-0.053-2.013 0.867-2.44 0.053-0.027 0.12-0.053 0.173-0.067l1.693-0.6c1.653-0.587 2.507-2.4 1.92-4.040-0.333-0.893-1.040-1.6-1.933-1.92zM16 22.373c-2.573-0.040-4.88-1.573-5.92-3.92-1.347-3.267 0.2-7.013 3.467-8.373 3.267-1.307 6.987 0.227 8.373 3.467 1.347 3.267-0.2 7.013-3.467 8.373-0.773 0.32-1.613 0.48-2.453 0.453z"></path>
</symbol>
<symbol id="nq-icon-expand" viewBox="0 0 32 32">
<path d="M32 1.333c0-0.8-0.533-1.333-1.333-1.333h-8.667c-0.8 0-1.333 0.533-1.333 1.333 0 0.4 0.133 0.667 0.4 0.933l2.933 2.933c0.133 0.133 0.133 0.4 0 0.533 0 0 0 0 0 0l-5.867 5.867c-0.667 0.667-0.667 1.733 0 2.4s1.733 0.667 2.4 0l5.867-6c0.133-0.133 0.4-0.133 0.533 0 0 0 0 0 0 0l2.933 2.933c0.267 0.267 0.533 0.4 0.933 0.4 0.133 0 0.4 0 0.533-0.133 0.4-0.133 0.667-0.667 0.667-1.2v-8.667z"></path>
<path d="M1.333 32h8.667c0.8 0 1.333-0.533 1.333-1.333 0-0.4-0.133-0.667-0.4-0.933l-2.933-2.933c-0.133-0.133-0.133-0.4 0-0.533 0 0 0 0 0 0l5.867-5.867c0.667-0.667 0.667-1.733 0-2.4s-1.733-0.667-2.4 0l-5.867 6c-0.133 0.133-0.4 0.133-0.533 0 0 0 0 0 0 0l-2.933-2.933c-0.533-0.533-1.333-0.533-1.867 0-0.133 0.267-0.267 0.533-0.267 0.933v8.667c0 0.8 0.533 1.333 1.333 1.333z"></path>
</symbol>
</svg>
